HIERARCHY
ROOT hip
{
  OFFSET 0 0 0
  CHANNELS 6 Xposition Yposition Zposition Zrotation Yrotation Xrotation
  JOINT abdomen
  {
    OFFSET 0 20.6881 -0.73152
    CHANNELS 3 Zrotation Xrotation Yrotation
    JOINT chest
    {
      OFFSET 0 11.7043 -0.48768
      CHANNELS 3 Zrotation Xrotation Yrotation
      JOINT neck
      {
        OFFSET 0 22.1894 -2.19456
        CHANNELS 3 Zrotation Xrotation Yrotation
        JOINT head
        {
          OFFSET -0.24384 7.07133 1.2192
          CHANNELS 3 Zrotation Xrotation Yrotation
          JOINT leftEye
          {
            OFFSET 4.14528 8.04674 8.04672
            CHANNELS 3 Zrotation Xrotation Yrotation
            End Site
            {
              OFFSET 1 0 0
            }
          }
          JOINT rightEye
          {
            OFFSET -3.6576 8.04674 8.04672
            CHANNELS 3 Zrotation Xrotation Yrotation
            End Site
            {
              OFFSET 1 0 0
            }
          }
        }
      }
      JOINT rCollar
      {
        OFFSET -2.68224 19.2634 -4.8768
        CHANNELS 3 Zrotation Xrotation Yrotation
        JOINT rShldr
        {
          OFFSET -8.77824 -1.95073 1.46304
          CHANNELS 3 Zrotation Xrotation Yrotation
          JOINT rForeArm
          {
            OFFSET -28.1742 -1.7115 0.48768
            CHANNELS 3 Zrotation Xrotation Yrotation
            JOINT rHand
            {
              OFFSET -22.5879 0.773209 7.07136
              CHANNELS 3 Zrotation Xrotation Yrotation
              JOINT rThumb1
              {
                OFFSET -1.2192 -0.487915 3.41376
                CHANNELS 3 Zrotation Xrotation Yrotation
                JOINT rThumb2
                {
                  OFFSET -3.37035 -0.52449 3.41376
                  CHANNELS 3 Zrotation Xrotation Yrotation
                  End Site
                  {
                    OFFSET -1.78271 -1.18214 1.43049
                  }
                }
              }
              JOINT rIndex1
              {
                OFFSET -7.75947 0.938293 5.60832
                CHANNELS 3 Zrotation Xrotation Yrotation
                JOINT rIndex2
                {
                  OFFSET -2.54057 -0.884171 1.56538
                  CHANNELS 3 Zrotation Xrotation Yrotation
                  End Site
                  {
                    OFFSET -1.62519 -0.234802 1.16502
                  }
                }
              }
              JOINT rMid1
              {
                OFFSET -8.24714 1.18213 3.41376
                CHANNELS 3 Zrotation Xrotation Yrotation
                JOINT rMid2
                {
                  OFFSET -3.10165 -0.590103 1.0647
                  CHANNELS 3 Zrotation Xrotation Yrotation
                  End Site
                  {
                    OFFSET -2.48547 -0.328903 0.83742
                  }
                }
              }
              JOINT rRing1
              {
                OFFSET -8.82822 0.546677 1.51678
                CHANNELS 3 Zrotation Xrotation Yrotation
                JOINT rRing2
                {
                  OFFSET -2.60934 -0.819778 -0.0198488
                  CHANNELS 3 Zrotation Xrotation Yrotation
                  End Site
                  {
                    OFFSET -2.33842 -0.294052 0.168128
                  }
                }
              }
              JOINT rPinky1
              {
                OFFSET -8.27202 -0.0477905 -0.4584
                CHANNELS 3 Zrotation Xrotation Yrotation
                JOINT rPinky2
                {
                  OFFSET -1.82734 -0.647385 -0.700984
                  CHANNELS 3 Zrotation Xrotation Yrotation
                  End Site
                  {
                    OFFSET -1.69225 -0.51767 -0.607171
                  }
                }
              }
            }
          }
        }
      }
      JOINT lCollar
      {
        OFFSET 2.68224 19.2634 -4.8768
        CHANNELS 3 Zrotation Xrotation Yrotation
        JOINT lShldr
        {
          OFFSET 8.77824 -1.95073 1.46304
          CHANNELS 3 Zrotation Xrotation Yrotation
          JOINT lForeArm
          {
            OFFSET 28.1742 -1.7115 0.48768
            CHANNELS 3 Zrotation Xrotation Yrotation
            JOINT lHand
            {
              OFFSET 22.5879 0.773209 7.07136
              CHANNELS 3 Zrotation Xrotation Yrotation
              JOINT lThumb1
              {
                OFFSET 1.2192 -0.487915 3.41376
                CHANNELS 3 Zrotation Xrotation Yrotation
                JOINT lThumb2
                {
                  OFFSET 3.37035 -0.52449 3.41376
                  CHANNELS 3 Zrotation Xrotation Yrotation
                  End Site
                  {
                    OFFSET 1.78271 -1.18214 1.43049
                  }
                }
              }
              JOINT lIndex1
              {
                OFFSET 7.75947 0.938293 5.60832
                CHANNELS 3 Zrotation Xrotation Yrotation
                JOINT lIndex2
                {
                  OFFSET 2.54057 -0.884171 1.56538
                  CHANNELS 3 Zrotation Xrotation Yrotation
                  End Site
                  {
                    OFFSET 1.62519 -0.234802 1.16502
                  }
                }
              }
              JOINT lMid1
              {
                OFFSET 8.24714 1.18213 3.41376
                CHANNELS 3 Zrotation Xrotation Yrotation
                JOINT lMid2
                {
                  OFFSET 3.10165 -0.590103 1.0647
                  CHANNELS 3 Zrotation Xrotation Yrotation
                  End Site
                  {
                    OFFSET 2.48547 -0.328903 0.83742
                  }
                }
              }
              JOINT lRing1
              {
                OFFSET 8.82822 0.546677 1.51678
                CHANNELS 3 Zrotation Xrotation Yrotation
                JOINT lRing2
                {
                  OFFSET 2.60934 -0.819778 -0.0198488
                  CHANNELS 3 Zrotation Xrotation Yrotation
                  End Site
                  {
                    OFFSET 2.33842 -0.294052 0.168128
                  }
                }
              }
              JOINT lPinky1
              {
                OFFSET 8.27202 -0.0477905 -0.4584
                CHANNELS 3 Zrotation Xrotation Yrotation
                JOINT lPinky2
                {
                  OFFSET 1.82734 -0.647385 -0.700984
                  CHANNELS 3 Zrotation Xrotation Yrotation
                  End Site
                  {
                    OFFSET 1.69225 -0.51767 -0.607171
                  }
                }
              }
            }
          }
        }
      }
    }
  }
  JOINT rButtock
  {
    OFFSET -8.77824 4.35084 1.2192
    CHANNELS 3 Zrotation Xrotation Yrotation
    JOINT rThigh
    {
      OFFSET 0 -1.70687 -2.19456
      CHANNELS 3 Zrotation Xrotation Yrotation
      JOINT rShin
      {
        OFFSET 0 -36.8199 0.73152
        CHANNELS 3 Zrotation Xrotation Yrotation
        JOINT rFoot
        {
          OFFSET 0.73152 -45.1104 -5.12064
          CHANNELS 3 Zrotation Xrotation Yrotation
          End Site
          {
            OFFSET -1.1221 -3.69964 12.103
          }
        }
      }
    }
  }
  JOINT lButtock
  {
    OFFSET 8.77824 4.35084 1.2192
    CHANNELS 3 Zrotation Xrotation Yrotation
    JOINT lThigh
    {
      OFFSET 0 -1.70687 -2.19456
      CHANNELS 3 Zrotation Xrotation Yrotation
      JOINT lShin
      {
        OFFSET 0 -36.8199 0.73152
        CHANNELS 3 Zrotation Xrotation Yrotation
        JOINT lFoot
        {
          OFFSET -0.73152 -45.1104 -5.12064
          CHANNELS 3 Zrotation Xrotation Yrotation
          End Site
          {
            OFFSET 1.1221 -3.69964 12.103
          }
        }
      }
    }
  }
}
MOTION
Frames:	6
Frame Time:	0.00833333
82.4675 83.0986 32.336 0.5911 -10.5253 12.0147 1.09561 6.63129 -5.00564 -1.12298 -8.12415 -1.49251 12.3118 23.581 6.52229 -100.848 -79.6221 -71.6795 -0.0 0.0 0.0 -0.0 0.0 0.0 2.46974e-14 -3.16045e-14 1.30477e-13 49.3806 43.1144 -5.95526 17.571 -55.0481 -119.826 -0.0125852 4.15961 0.585052 4.21843e-10 6.64748e-10 -5.84175e-10 7.27374e-10 1.12191e-09 -1.01391e-09 4.21843e-10 6.64747e-10 -5.84183e-10 7.73091 5.47488 0.417314 4.21841e-10 6.64743e-10 -5.84179e-10 2.90554 0.965183 0.102902 4.21847e-10 6.64737e-10 -5.84175e-10 10.2786 0.731801 0.0259123 4.21838e-10 6.64755e-10 -5.84172e-10 2.22167 -0.733487 -0.20892 2.46526e-14 -3.16092e-14 1.30272e-13 -39.8055 55.9713 7.95869 -18.6449 -54.3857 117.406 0.915098 -26.0076 3.93579 -1.20855e-11 6.88182e-10 5.15065e-10 -3.12289e-11 1.20271e-09 8.91758e-10 -1.20907e-11 6.88178e-10 5.15072e-10 -7.73091 5.47488 -0.417314 -1.20852e-11 6.88181e-10 5.15066e-10 -2.90554 0.965183 -0.102902 -1.20899e-11 6.88181e-10 5.15063e-10 -10.2786 0.731801 -0.0259123 -1.20796e-11 6.88183e-10 5.15059e-10 -2.22167 -0.733487 0.20892 -2.03217e-16 0.0 -3.88251e-19 -0.104865 -23.668 -4.23051 -0.101593 22.1702 0.290494 1.79205 -12.6699 7.98591 2.03217e-16 0.0 3.88251e-19 -1.47258 -22.4889 -8.25823 0.0926431 22.5361 -0.338998 -0.0527627 -12.4951 -1.8524
82.4379 83.1356 32.0925 0.4121 -10.7308 12.2574 1.14769 7.01832 -4.74742 -1.53035 -8.27566 -1.44655 12.2244 23.6426 6.51631 -98.6458 -79.7313 -69.594 -0.0 0.0 0.0 -0.0 0.0 0.0 6.59855e-14 1.41189e-13 4.10389e-14 47.7466 37.9296 -5.30767 16.5656 -55.6212 -122.014 -0.00191858 2.51984 0.354014 4.60964e-10 9.48892e-11 -5.49448e-10 7.99071e-10 1.56932e-10 -9.52598e-10 4.60966e-10 9.49022e-11 -5.49455e-10 7.73091 5.47488 0.417314 4.60963e-10 9.48936e-11 -5.4945e-10 2.90554 0.965183 0.102902 4.60967e-10 9.4884e-11 -5.49448e-10 10.2786 0.731801 0.0259123 4.60959e-10 9.48922e-11 -5.49449e-10 2.22167 -0.733487 -0.20892 6.59311e-14 1.41184e-13 4.08355e-14 -36.5134 53.9881 6.49947 -17.5481 -55.0613 119.874 1.01467 -27.2497 4.15552 -9.62304e-11 4.57453e-10 2.63855e-10 -1.71145e-10 7.94869e-10 4.54826e-10 -9.62338e-11 4.57451e-10 2.63863e-10 -7.73091 5.47488 -0.417314 -9.62277e-11 4.57457e-10 2.63861e-10 -2.90554 0.965183 -0.102902 -9.62364e-11 4.57458e-10 2.63857e-10 -10.2786 0.731801 -0.0259123 -9.62263e-11 4.57461e-10 2.63853e-10 -2.22167 -0.733487 0.20892 -2.03217e-16 0.0 -3.88251e-19 0.156726 -24.1151 -3.58715 -0.102737 22.3965 0.297613 1.6242 -12.6704 7.39156 2.03217e-16 0.0 3.88251e-19 -1.1971 -23.0564 -7.59527 0.0962871 22.8406 -0.338107 -0.284366 -12.1507 -2.75356
82.4153 83.1609 31.8416 0.421 -10.9345 12.4635 1.0387 7.414 -4.51437 -1.74523 -8.38497 -1.39708 12.1002 23.6589 6.5154 -96.357 -79.7307 -67.3299 -0.0 0.0 0.0 -0.0 0.0 0.0 9.62449e-14 2.48085e-13 -3.17062e-14 46.3765 33.6521 -4.72658 15.8571 -55.9725 -123.523 -0.00253421 1.43727 0.202038 5.63715e-10 3.08251e-11 -4.74688e-10 9.79751e-10 6.08472e-11 -8.22277e-10 5.63718e-10 3.08462e-11 -4.74695e-10 7.73091 5.47488 0.417314 5.63715e-10 3.0835e-11 -4.74688e-10 2.90554 0.965183 0.102902 5.63718e-10 3.08237e-11 -4.74688e-10 10.2786 0.731801 0.0259123 5.6371e-10 3.08251e-11 -4.74691e-10 2.22167 -0.733487 -0.20892 9.6185e-14 2.48081e-13 -3.19049e-14 -33.555 51.5711 5.15405 -16.5972 -55.5744 121.95 1.14304 -28.8537 4.44112 -1.21484e-10 2.7805e-10 1.14996e-10 -2.11502e-10 4.80009e-10 1.96806e-10 -1.21486e-10 2.78049e-10 1.15006e-10 -7.73091 5.47488 -0.417314 -1.21481e-10 2.78058e-10 1.15006e-10 -2.90554 0.965183 -0.102902 -1.21492e-10 2.7806e-10 1.15002e-10 -10.2786 0.731801 -0.0259123 -1.21482e-10 2.78062e-10 1.14996e-10 -2.22167 -0.733487 0.20892 -2.03217e-16 0.0 -3.88251e-19 0.315494 -24.4828 -3.02587 -0.104058 22.6135 0.304187 1.46664 -12.622 6.85244 2.03217e-16 0.0 3.88251e-19 -1.01719 -23.5032 -6.98638 0.099107 23.0832 -0.337246 -0.470177 -11.7868 -3.5262
82.4076 83.164 31.6956 0.5916 -11.0466 12.3883 0.652773 7.88733 -4.30226 -1.66785 -8.438 -1.33797 11.9087 23.6124 6.52566 -93.9971 -79.5821 -64.8645 -0.0 0.0 0.0 -0.0 0.0 0.0 1.1297e-13 2.48694e-13 -8.18212e-14 45.0813 30.0376 -4.02209 15.5697 -56.0969 -124.131 -0.00503968 1.06744 0.150254 8.10421e-10 8.27586e-10 -3.41246e-10 1.40782e-09 1.44414e-09 -5.90784e-10 8.10423e-10 8.27606e-10 -3.41253e-10 7.73091 5.47488 0.417314 8.1042e-10 8.27595e-10 -3.41246e-10 2.90554 0.965183 0.102902 8.10424e-10 8.27586e-10 -3.41246e-10 10.2786 0.731801 0.0259123 8.10416e-10 8.27585e-10 -3.41248e-10 2.22167 -0.733487 -0.20892 1.12914e-13 2.48689e-13 -8.20088e-14 -30.7915 48.2847 3.87153 -15.8312 -55.9726 123.581 1.33843 -31.1308 4.85868 -7.27545e-11 1.66766e-10 9.57679e-11 -1.26239e-10 2.86965e-10 1.6534e-10 -7.27557e-11 1.6676e-10 9.5779e-11 -7.73091 5.47488 -0.417314 -7.27512e-11 1.66774e-10 9.57773e-11 -2.90554 0.965183 -0.102902 -7.27644e-11 1.66775e-10 9.5774e-11 -10.2786 0.731801 -0.0259123 -7.27524e-11 1.66776e-10 9.57673e-11 -2.22167 -0.733487 0.20892 -2.03217e-16 0.0 -3.88251e-19 0.309755 -24.7602 -2.54205 -0.105936 22.8563 0.310795 1.31779 -12.5186 6.36035 2.03217e-16 0.0 3.88251e-19 -0.993245 -23.79 -6.42236 0.100973 23.2614 -0.336561 -0.611588 -11.3745 -4.17908
82.3792 83.2045 31.6019 0.7946 -11.1518 12.2468 0.0782934 8.42485 -4.08395 -1.40644 -8.44774 -1.26749 11.6603 23.5138 6.54674 -91.4328 -79.3093 -62.0952 -0.0 0.0 0.0 -0.0 0.0 0.0 1.22157e-13 1.86959e-13 -1.22945e-13 43.8322 26.6966 -3.23176 15.5923 -56.0812 -124.084 -0.00563355 1.16643 0.164192 1.16309e-09 2.2393e-09 -1.57851e-10 2.01832e-09 3.88601e-09 -2.7307e-10 1.16309e-09 2.23931e-09 -1.57859e-10 7.73091 5.47488 0.417314 1.16309e-09 2.2393e-09 -1.57851e-10 2.90554 0.965183 0.102902 1.16309e-09 2.2393e-09 -1.5785e-10 10.2786 0.731801 0.0259123 1.16308e-09 2.2393e-09 -1.5785e-10 2.22167 -0.733487 -0.20892 1.22111e-13 1.86954e-13 -1.23116e-13 -28.059 44.1801 2.60665 -15.1316 -56.3271 125.038 1.63257 -33.9822 5.41881 2.30405e-11 8.41632e-11 1.49054e-10 3.91324e-11 1.45861e-10 2.60811e-10 2.304e-11 8.41488e-11 1.49067e-10 -7.73091 5.47488 -0.417314 2.30422e-11 8.41679e-11 1.49062e-10 -2.90554 0.965183 -0.102902 2.30277e-11 8.41685e-11 1.4906e-10 -10.2786 0.731801 -0.0259123 2.30424e-11 8.41672e-11 1.49051e-10 -2.22167 -0.733487 0.20892 -2.03217e-16 0.0 -3.88251e-19 0.21467 -24.9798 -2.06159 -0.108181 23.1216 0.317818 1.16225 -12.3788 5.84967 2.03217e-16 0.0 3.88251e-19 -1.05787 -23.984 -5.85134 0.102454 23.4173 -0.336091 -0.729554 -10.9161 -4.79127
82.3647 83.2732 31.4656 1.0384 -11.2951 12.3117 -0.489103 8.88139 -3.88936 -1.10468 -8.43612 -1.20076 11.4158 23.3948 6.56517 -89.0249 -78.9672 -59.4497 -0.0 0.0 0.0 -0.0 0.0 0.0 1.24946e-13 1.20801e-13 -1.58207e-13 42.9318 24.4743 -2.58421 15.8403 -55.964 -123.562 -0.00523707 1.56745 0.220483 1.46948e-09 3.65155e-09 4.00832e-11 2.54857e-09 6.32848e-09 6.97202e-11 1.46948e-09 3.65155e-09 4.00741e-11 7.73091 5.47488 0.417314 1.46948e-09 3.65155e-09 4.00829e-11 2.90554 0.965183 0.102902 1.46948e-09 3.65155e-09 4.00845e-11 10.2786 0.731801 0.0259123 1.46947e-09 3.65155e-09 4.00873e-11 2.22167 -0.733487 -0.20892 1.24907e-13 1.20796e-13 -1.58362e-13 -25.874 40.206 1.55442 -14.6205 -56.5784 126.085 1.98538 -36.7756 6.01754 1.5213e-10 2.20393e-11 2.56314e-10 2.60108e-10 4.4241e-11 4.50741e-10 1.5213e-10 2.20174e-11 2.56329e-10 -7.73091 5.47488 -0.417314 1.5213e-10 2.20407e-11 2.56319e-10 -2.90554 0.965183 -0.102902 1.52115e-10 2.20402e-11 2.56318e-10 -10.2786 0.731801 -0.0259123 1.52132e-10 2.20372e-11 2.56309e-10 -2.22167 -0.733487 0.20892 -2.03217e-16 0.0 -3.88251e-19 0.0987503 -25.1438 -1.6558 -0.110049 23.3329 0.323652 1.01941 -12.2029 5.38913 2.03217e-16 0.0 3.88251e-19 -1.14413 -24.123 -5.33899 0.103426 23.5248 -0.335467 -0.811432 -10.4788 -5.28547
